# xmcd CD database file
# Copyright (C) 1993-1998 Ti Kan
#
# Track frame offsets:
#	150
#	13380
#	31197
#	52312
#	75565
#	94942
#	106830
#	125290
#	137182
#	157912
#	184420
#
# Disc length: 2666 seconds
#
# Revision: 1
# Processed by: cddbd v1.4b41PL1 Copyright (c) Steve Scherf et al.
# Submitted via: NotifyCDPlayer(CDDB) 1.51.3
#
DISCID=900a680b
DTITLE=Paul deLay - Paulzilla
DYEAR=1900
DGENRE=
TTITLE0=I Can't Quit You No
TTITLE1=No Use Worryin'
TTITLE2=What's the Big Idea?
TTITLE3=I Missed You Bad
TTITLE4=The Prisoner's Song
TTITLE5=Lou's Blues
TTITLE6=Just This One
TTITLE7=Beggin' Megan
TTITLE8=I Want the Man Gone
TTITLE9=You Ain't Got No Heart
TTITLE10=Don't Feel Nothin'
EXTD=1992 Paul deLay Band.\nCriminal Records.
EXTT0=
EXTT1=
EXTT2=
EXTT3=
EXTT4=
EXTT5=
EXTT6=
EXTT7=
EXTT8=
EXTT9=
EXTT10=
PLAYORDER=
